<svg width="134" height="133" viewBox="0 0 134 133" fill="none" xmlns="http://www.w3.org/2000/svg">
<path d="M133.522 66.7629C133.53 75.946 131.606 85.0294 127.874 93.4311C124.141 101.833 118.683 109.367 111.848 115.552C109.946 117.274 107.947 118.886 105.861 120.382C103.183 122.301 100.363 124.017 97.4269 125.517H97.3961C96.7702 125.844 96.1341 126.154 95.4928 126.455C95.2004 126.598 94.9131 126.73 94.6156 126.863C92.7585 127.708 90.8535 128.467 88.9007 129.14C87.3616 129.649 85.7816 130.159 84.1861 130.577C74.983 133.008 65.3631 133.458 55.9706 131.896C54.8574 131.713 53.7596 131.504 52.6669 131.265L51.7435 131.056C48.956 130.409 46.2141 129.582 43.5353 128.58C41.9792 127.999 40.4539 127.362 38.9593 126.669C38.3796 126.399 37.7999 126.124 37.2304 125.838C36.8406 125.645 36.4558 125.446 36.071 125.247C25.6328 119.803 16.839 111.702 10.5902 101.772C4.34135 91.8427 0.862015 80.4422 0.508441 68.7382C0.154868 57.0341 2.93977 45.447 8.57798 35.1634C14.2162 24.8798 22.5051 16.2691 32.5959 10.2132C42.6868 4.15723 54.2169 0.873616 66.0058 0.698548C77.7946 0.523481 89.4184 3.46327 99.6871 9.21686C109.956 14.9705 118.5 23.3311 124.445 33.4427C130.391 43.5543 133.523 55.0536 133.522 66.7629Z" fill="url(#paint0_linear_0_1656)"/>
<defs>
<linearGradient id="paint0_linear_0_1656" x1="67.2733" y1="7.86511" x2="65.0293" y2="138.076" gradientUnits="userSpaceOnUse">
<stop stop-color="white" stop-opacity="0"/>
<stop offset="1" stop-color="#64B5F6" stop-opacity="0.6"/>
</linearGradient>
</defs>
</svg>
